{"title":"Nanny.McPhee.And.The.Big.Bang.DVDRip.MP4.FEEL-FREE","uid":5690211,"size":1046326137,"categoryP":"video","categoryS":"movies","magnet":"?xt=urn:btih:2eb0dfe6ce8af9cc2c5117b8f35d3687397e23a0&amp;dn=Nanny.McPhee.And.The.Big.Bang.DVDRip.MP4.FEEL-FREE&amp;tr=udp%3A%2F%2Ftracker.openbittorrent.com%3A80&amp;tr=udp%3A%2F%2Fopen.demonii.com%3A1337&amp;tr=udp%3A%2F%2Ftracker.coppersurfer.tk%3A6969&amp;tr=udp%3A%2F%2Fexodus.desync.com%3A6969","seeders":0,"leechers":1,"uploader":"neon","files":7,"time":1279062082,"description":"Genre:Comedy | Family | Fantasy\nLanguage:English\nIMDb:http://www.imdb.com/title/tt1415283/\nEncoder: Tony2\n.............................................\nGeneral\nComplete name : Nanny.McPhee.And.The.Big.Bang.DVDRip.MP4.FEEL-FREE\nFormat : MPEG-4\nFormat profile : Base Media\nCodec ID : isom\nFile size : 997 MiB\nDuration : 1h 44mn\nOverall bit rate : 1 330 Kbps\n..............................................\nVideo\nID : 1\nFormat : MPEG-4 Visual\nFormat profile : Simple@L1\nFormat settings, BVOP : No\nFormat settings, QPel : No\nFormat settings, GMC : No warppoints\nFormat settings, Matrix : Default (H.263)\nCodec ID : 20\nDuration : 1h 44mn\nBit rate mode : Variable\nBit rate : 1 197 Kbps\nWidth : 720 pixels\nHeight : 304 pixels\nDisplay aspect ratio : 2.35:1\nFrame rate mode : Constant\nFrame rate : 25.000 fps\nResolution : 24 bits\nColorimetry : 4:2:0\nScan type : Progressive\nBits/(Pixel*Frame) : 0.219\nStream size : 897 MiB (90%)\n.................................................\nAudio\nID : 2\nFormat : AAC\nFormat/Info : Advanced Audio Codec\nFormat version : Version 4\nFormat profile : LC\nFormat settings, SBR : No\nCodec ID : 40\nDuration : 1h 44mn\nBit rate mode : Variable\nBit rate : 128 Kbps\nChannel(s) : 2 channels\nChannel positions : L R\nSampling rate : 48.0 KHz\nResolution : 16 bits\nStream size : 95.9 MiB (10%)\n.................................................\nPlot:\nNanny McPhee arrives to help a harried young mother who is trying to run the family farm while her husband is away at war, though she uses her magic to teach the woman's children and their two spoiled cousins five new lessons\n &lt;a href=&quot;\nhttp://www.imdb.com/title/tt1415283/&quot; rel=&quot;nofollow&quot; target=&quot;_NEW&quot;&gt;\nhttp://www.imdb.com/title/tt1415283/&lt;/a&gt;","torrent":{"xt":"urn:btih:2eb0dfe6ce8af9cc2c5117b8f35d3687397e23a0","amp;dn":"Nanny.McPhee.And.The.Big.Bang.DVDRip.MP4.FEEL-FREE","amp;tr":["udp%3A%2F%2Ftracker.openbittorrent.com%3A80","udp%3A%2F%2Fopen.demonii.com%3A1337","udp%3A%2F%2Ftracker.coppersurfer.tk%3A6969","udp%3A%2F%2Fexodus.desync.com%3A6969"],"infoHash":"2eb0dfe6ce8af9cc2c5117b8f35d3687397e23a0","infoHashBuffer":{"type":"Buffer","data":[46,176,223,230,206,138,249,204,44,81,23,184,243,93,54,135,57,126,35,160]},"announce":[],"urlList":[]}}